<svg xmlns="http://www.w3.org/2000/svg" viewBox="0 0 128 128" height="128" width="128"><defs><clipPath clipPathUnits="userSpaceOnUse" id="0064-payer-insurance-usd-clipPath"><path d="M39 46h87v47H39z"></path></clipPath></defs><path d="M82.5 53.5c-8.836 0-16 7.164-16 16s7.164 16 16 16 16-7.164 16-16-7.164-16-16-16" fill="#ff6c00"></path><path clip-path="url(#0064-payer-insurance-usd-clipPath)" d="M124 124l4-4m0-4l-8 8m-4 0l12-12m0-4l-16 16m-4 0l20-20m0-4l-24 24m-4 0l28-28m0-4l-32 32m-4 0l36-36m0-4l-40 40m-4 0l44-44m0-4l-48 48m-4 0l52-52m0-4l-56 56m-4 0l60-60m0-4l-64 64m-4 0l68-68m0-4l-72 72m-4 0l76-76m0-4l-80 80m-4 0l84-84m0-4l-88 88m-4 0l92-92m0-4l-96 96m-4 0L128 24m0-4L24 124m-4 0L128 16m0-4L16 124m-4 0L128 8m0-4L8 124m0-4L124 4m-4 0L8 116m0-4L116 4m-4 0L8 108m0-4L108 4m-4 0L8 100m0-4l92-92m-4 0L8 92m0-4L92 4m-4 0L8 84m0-4L84 4m-4 0L8 76m0-4L76 4m-4 0L8 68m0-4L68 4m-4 0L8 60m0-4L60 4m-4 0L8 52m0-4L52 4m-4 0L8 44m0-4L44 4m-4 0L8 36m0-4L36 4m-4 0L8 28m0-4L28 4m-4 0L8 20m0-4L20 4m-4 0l-8 8m0-4l4-4" fill="none" stroke="#343741" stroke-linecap="square" stroke-width=".2"></path><path d="M81.064 80.9v-2.55c-1.798-.08-3.543-.563-4.562-1.154l.805-3.14c1.127.617 2.71 1.181 4.455 1.181 1.53 0 2.576-.591 2.576-1.664 0-1.02-.859-1.663-2.844-2.335-2.872-.966-4.831-2.308-4.831-4.911 0-2.362 1.664-4.214 4.536-4.777v-2.549h2.63v2.361c1.798.08 3.005.456 3.891.886l-.778 3.032c-.698-.295-1.932-.912-3.865-.912-1.745 0-2.308.751-2.308 1.503 0 .885.939 1.449 3.221 2.308 3.194 1.127 4.482 2.603 4.482 5.018 0 2.389-1.691 4.429-4.778 4.966V80.9h-2.63" fill="#fff"></path><path d="M58.103 67.663L39 56.032V46h37L51.804 30.676a11.3 11.3 0 0 0-11.739-.214L22 41H11v28h18.61l22.353 10.229a6.559 6.559 0 0 0 6.14-11.566" fill="#acd2ff"></path><path d="M4 35h14v40H4z" fill="#ff6c00"></path><path d="M11 41h7v28h-7z" fill="#ac5800"></path></svg>