<svg xmlns="http://www.w3.org/2000/svg" xmlns:xlink="http://www.w3.org/1999/xlink" viewBox="0 0 512 335.45" height="16" width="25"><path d="M0 335.45V0h512v335.45z" fill="#f73e29"/><path d="M85.007 52.457l8.416 25.234 26.6.206c3.444.026 4.872 4.422 2.1 6.467l-21.4 15.8 8.023 25.362c1.038 3.284-2.7 6-5.5 4l-21.64-15.47-21.64 15.47c-2.8 2.003-6.54-.714-5.5-4l8.023-25.362-21.4-15.8c-2.77-2.046-1.342-6.44 2.1-6.467l26.6-.206 8.417-25.234c1.09-3.268 5.71-3.268 6.8 0z" fill="#fdd300" id="flag-cn-s"/><use id="flag-cn-t" transform="matrix(.38106 .0445 -.0445 .38106 131.85 2.52)" xlink:href="#flag-cn-s"/><use transform="rotate(-24.381 246.61784 -3.13298)" xlink:href="#flag-cn-t"/><use transform="rotate(11.088 -391.33777 87.58454)" xlink:href="#flag-cn-t"/><use transform="rotate(-13.363 495.23347 -26.35)" xlink:href="#flag-cn-t"/></svg>