<?xml version="1.0" encoding="utf-8"?>
<!-- Generator: Adobe Illustrator 24.2.0, SVG Export Plug-In . SVG Version: 6.00 Build 0)  -->
<svg version="1.1" id="Layer_1" xmlns="http://www.w3.org/2000/svg" xmlns:xlink="http://www.w3.org/1999/xlink" x="0px" y="0px"
	 viewBox="0 0 19.9 24" style="enable-background:new 0 0 19.9 24;" xml:space="preserve">
<style type="text/css">
	.st0{fill:#007298;}
</style>
<path class="st0" d="M17.8,12.9c0,1.3-1.1,2.4-2.4,2.4h-4.6l-3.5,3.4v-3.4H4.5c-1.3,0-2.4-1.1-2.4-2.4V8.1c0-1.3,1.1-2.4,2.4-2.4
	h10.9c1.3,0,2.4,1.1,2.4,2.4V12.9z M15.4,3.8H4.5c-2.4,0-4.3,1.9-4.3,4.3v4.9c0,2.4,1.9,4.3,4.3,4.3h0.9v3.6c0,0.4,0.2,0.7,0.6,0.9
	c0.1,0.1,0.2,0.1,0.4,0.1c0.2,0,0.5-0.1,0.7-0.3l4.5-4.2h3.8c2.4,0,4.3-1.9,4.3-4.3V8.1C19.7,5.7,17.8,3.8,15.4,3.8"/>
</svg>
