<?xml version="1.0" encoding="UTF-8"?>
<svg width="222px" height="31px" viewBox="0 0 222 31" version="1.1" xmlns="http://www.w3.org/2000/svg" xmlns:xlink="http://www.w3.org/1999/xlink">
    <!-- Generator: Sketch 60.1 (88133) - https://sketch.com -->
    <title>ELSEVIER</title>
    <desc>Created with Sketch.</desc>
    <g id="CANLET-EM-HP-v3" stroke="none" stroke-width="1" fill="none" fill-rule="evenodd">
        <g transform="translate(-240.000000, -123.000000)" fill="#E36932" fill-rule="nonzero" id="header">
            <g transform="translate(0.000000, 85.000000)">
                <path d="M406.706923,65.6555502 L406.706923,41.7334556 L401.745048,41.309398 L401.745048,39.4579712 C404.393572,39.5475916 406.343272,39.6087958 407.828548,39.6087958 L421.614457,39.6087958 L422.039448,38 L423.984766,38 L423.984766,46.0745813 L422.039448,46.0745813 L421.279284,41.7334556 L411.633748,41.7334556 L411.633748,52.5403667 L418.720577,52.5403667 L419.268246,49.3533771 L421.128127,49.3533771 L421.128127,57.7929977 L419.268246,57.7929977 L418.720577,54.6366102 L411.633748,54.6366102 L411.633748,63.168037 C411.633748,65.04788 411.727947,65.2926967 411.846244,65.4129193 C411.971112,65.5375135 412.334764,65.6511784 415.467427,65.6511784 L418.389785,65.6511784 C420.698755,65.6511784 421.704275,65.5025397 422.190604,65.015092 C422.738272,64.4686261 423.375758,63.0128407 424.107443,59.8564532 L426.057143,59.8564532 L425.23564,67.7802099 L409.353257,67.7802099 C406.704733,67.7802099 403.815234,67.8720162 401.742857,67.9310345 L401.742857,66.0796078 L406.706923,65.6555502 Z M326.464001,65.6555502 L326.464001,41.7334556 L321.402236,41.309398 L321.402236,39.4579712 C324.105272,39.5475916 326.092865,39.6087958 327.617654,39.6087958 L341.682834,39.6087958 L342.1121,38 L344.1064,38 L344.1064,46.0745813 L342.1121,46.0745813 L341.338527,41.7334556 L331.49223,41.7334556 L331.49223,52.5403667 L338.727156,52.5403667 L339.286097,49.3533771 L341.182023,49.3533771 L341.182023,57.7929977 L339.286097,57.7929977 L338.727156,54.6366102 L331.49223,54.6366102 L331.49223,63.168037 C331.49223,65.04788 331.588368,65.2926967 331.713571,65.4129193 C331.838773,65.5375135 332.20991,65.6511784 335.404814,65.6511784 L338.854595,65.6511784 C341.21556,65.6511784 342.333441,65.5025397 342.827544,65.015092 C343.386485,64.4686261 344.037091,63.0128407 344.783836,59.8564532 L346.771429,59.8564532 L345.933018,67.7802099 L329.164802,67.7802099 C326.461765,67.7802099 323.517267,67.8720162 321.4,67.9310345 L321.4,66.0796078 L326.464001,65.6555502 Z M274.645625,65.624462 L274.645625,41.375538 L269.6,40.9456869 L269.6,39.0689655 C272.291149,39.1598104 274.273279,39.2218507 275.481732,39.2218507 L278.826158,39.2218507 C280.036841,39.2218507 282.018971,39.1598104 284.71012,39.0689655 L284.71012,40.9456869 L279.662265,41.375538 L279.662265,63.3178894 C279.662265,64.6694833 279.662265,65.1613749 279.940967,65.4095364 C280.068055,65.5624216 281.584195,65.624462 283.381267,65.624462 L284.837208,65.624462 C287.494912,65.624462 288.331019,65.347496 288.736809,64.9508807 C289.294214,64.3969488 290.003232,62.8548023 290.875013,58.6715084 L292.857143,58.6715084 L292.23508,67.7781493 L277.093745,67.7781493 C274.155109,67.7781493 271.767188,67.8712098 269.6,67.9310345 L269.6,66.0543131 L274.645625,65.624462 Z M316.114286,60.9405757 C316.114286,65.8891508 312.065892,68.7520177 306.770459,68.7520177 C303.966862,68.7520177 301.351667,67.9217199 299.541665,66.7526605 L299.012346,69 L297.085714,69 L297.085714,59.4039711 L299.012346,59.4039711 C299.200748,60.7280194 299.512508,62.4173988 299.822025,63.6174559 C301.475025,65.3688308 304.184421,66.5998857 306.550657,66.5998857 C309.701899,66.5998857 311.444615,64.8152989 311.444615,62.0476395 C311.444615,55.5292479 297.675591,55.4672523 297.675591,46.5487465 C297.675591,41.8437254 301.632027,39.1690594 306.6157,39.1690594 C308.609618,39.1690594 310.542978,39.5698164 312.036735,40.152132 L312.597454,38 L314.526329,38 L314.526329,46.3937576 L312.597454,46.3937576 C312.409052,45.1627027 312.15785,43.9028641 311.81469,42.6718092 C310.569893,41.8105135 308.822691,41.3211913 307.205577,41.3211913 C304.372823,41.3211913 302.313861,42.6120277 302.313861,45.4394686 C302.318347,51.7740876 316.114286,51.8405114 316.114286,60.9405757 Z M244.960579,65.6555502 L244.960579,41.7334556 L240,41.309398 L240,39.4579712 C242.646811,39.5475916 244.59467,39.6087958 245.782229,39.6087958 L259.87299,39.6087958 L260.300248,38 L262.245917,38 L262.245917,46.0745813 L260.300248,46.0745813 L259.537757,41.7334556 L249.890483,41.7334556 L249.890483,52.5403667 L256.98078,52.5403667 L257.528547,49.3533771 L259.384382,49.3533771 L259.384382,57.7929977 L257.528547,57.7929977 L256.98078,54.6366102 L249.890483,54.6366102 L249.890483,63.168037 C249.890483,65.04788 249.984699,65.2926967 250.103016,65.4129193 C250.225716,65.5375135 250.591625,65.6511784 253.727043,65.6511784 L256.557904,65.6511784 C258.86729,65.6511784 259.962824,65.5025397 260.449241,65.015092 C260.997008,64.4686261 261.6368,63.0128407 262.366426,59.8564532 L264.314286,59.8564532 L263.492635,67.7802099 L247.607389,67.7802099 C244.960579,67.7802099 242.068369,67.8720162 240,67.9310345 L240,66.0796078 L244.960579,65.6555502 Z M374.180882,42.4319994 L365.067867,69 L361.42829,69 L352.347751,42.4319994 L348.885714,42.0044785 L348.885714,40.137931 L355.08014,40.2899874 L362.058341,40.137931 L362.058341,42.0044785 L357.578696,42.4319994 L364.465962,63.6097106 L371.292604,42.4319994 L366.812958,42.0044785 L366.812958,40.137931 L372.585184,40.2899874 L377.428571,40.137931 L377.428571,42.0044785 L374.180882,42.4319994 Z M385.542069,41.375538 L380.717928,40.9456869 L380.717928,39.0689655 C383.358212,39.1598104 385.175181,39.2218507 386.361015,39.2218507 L389.636801,39.2218507 C390.818268,39.2218507 392.759717,39.1598104 395.4,39.0689655 L395.4,40.9456869 L390.455747,41.375538 L390.455747,65.624462 L395.4,66.0543131 L395.4,67.9310345 C393.275107,67.8734256 391.45377,67.780365 389.636801,67.780365 L386.361015,67.780365 C384.539678,67.780365 382.718341,67.8734256 380.6,67.9310345 L380.6,66.0543131 L385.542069,65.624462 L385.542069,41.375538 Z M453.978975,67.7759574 C450.947939,63.6819212 447.951767,59.3176077 445.295524,54.9776635 L442.233981,54.9776635 L442.233981,65.6226007 L446.864429,66.0546012 L446.864429,67.9310345 C444.750766,67.871219 443.234158,67.7781727 441.416843,67.7781727 L438.148292,67.7781727 C436.335336,67.7781727 434.518021,67.871219 432.4,67.9310345 L432.4,66.0546012 L437.331154,65.6226007 L437.331154,41.375184 L432.4,40.9453988 L432.4,39.0689655 C435.034452,39.1597964 436.969435,39.2218273 438.453357,39.2218273 L445.352179,39.2218273 C451.344523,39.2218273 456.552415,41.3441685 456.552415,46.8826374 C456.552415,50.7573502 453.739282,52.9727378 450.198351,54.0516315 C452.978799,58.3915757 455.735277,62.3283194 459.003828,65.7112162 L462,66.0501705 L462,67.9266037 L453.978975,67.7759574 Z M441.914286,41.20916 L441.914286,52.9655172 L444.961389,52.9655172 C449.389634,52.9655172 451.428571,50.6092662 451.428571,47.0873386 C451.428571,44.2263383 450.079075,41.2068966 444.210915,41.2068966 L441.914286,41.2068966 L441.914286,41.20916 L441.914286,41.20916 Z" id="ELSEVIER"></path>
            </g>
        </g>
    </g>
</svg>