<?xml version="1.0" encoding="utf-8"?>
<!-- Generator: Adobe Illustrator 24.1.3, SVG Export Plug-In . SVG Version: 6.00 Build 0)  -->
<svg version="1.1" id="Layer_1" xmlns="http://www.w3.org/2000/svg" xmlns:xlink="http://www.w3.org/1999/xlink" x="0px" y="0px"
	 viewBox="0 0 19.5 24" style="enable-background:new 0 0 19.5 24;" xml:space="preserve">
<style type="text/css">
	.st0{fill:#FFFFFF;}
</style>
<path class="st0" d="M9.8,2.3c-2.6,0-5,1-6.8,2.8c-1.8,1.8-2.8,4.2-2.8,6.8c0,5.3,4.3,9.6,9.6,9.6h0c2.6,0,5-1,6.8-2.8
	c1.8-1.8,2.8-4.2,2.8-6.8C19.3,6.5,15,2.3,9.8,2.3z M15.2,17.3c-1.5,1.5-3.4,2.3-5.5,2.3h0c-4.3,0-7.8-3.5-7.8-7.8
	c0-2.1,0.8-4,2.3-5.5c1.5-1.5,3.4-2.3,5.5-2.3c4.3,0,7.8,3.5,7.8,7.8C17.5,13.9,16.7,15.8,15.2,17.3L15.2,17.3z M8.8,7.1h1.9V9H8.8
	V7.1z M8.8,10.1h1.9v6.4H8.8V10.1z"/>
</svg>
