<?xml version="1.0" encoding="utf-8"?>
<!-- Generator: Adobe Illustrator 24.2.0, SVG Export Plug-In . SVG Version: 6.00 Build 0)  -->
<svg version="1.1" id="Layer_1" xmlns="http://www.w3.org/2000/svg" xmlns:xlink="http://www.w3.org/1999/xlink" x="0px" y="0px"
	 viewBox="0 0 18.8 24" style="enable-background:new 0 0 18.8 24;" xml:space="preserve">
<style type="text/css">
	.st0{fill:#FFFFFF;}
</style>
<path class="st0" d="M3.6,14.4c-1.1-1.1-1.7-2.6-1.7-4.1s0.6-3,1.7-4.1c1.1-1.1,2.5-1.7,4.1-1.7c1.5,0,3,0.6,4.1,1.7
	c1.1,1.1,1.7,2.5,1.7,4.1s-0.6,3-1.7,4.1c-1.1,1.1-2.5,1.7-4.1,1.7C6.2,16.1,4.7,15.5,3.6,14.4z M18.7,20L13.7,15
	c1.1-1.3,1.6-3,1.6-4.7c0-2-0.8-4-2.2-5.4c-1.4-1.4-3.4-2.2-5.4-2.2s-4,0.8-5.4,2.2C0.8,6.4,0,8.3,0,10.3s0.8,4,2.2,5.4
	C3.7,17.2,5.7,18,7.7,18c1.7,0,3.4-0.6,4.7-1.6l4.9,4.9L18.7,20"/>
</svg>
