<?xml version="1.0" encoding="utf-8"?>
<!-- Generator: Adobe Illustrator 24.2.0, SVG Export Plug-In . SVG Version: 6.00 Build 0)  -->
<svg version="1.1" id="Layer_1" xmlns="http://www.w3.org/2000/svg" xmlns:xlink="http://www.w3.org/1999/xlink" x="0px" y="0px"
	 viewBox="0 0 17.6 24" style="enable-background:new 0 0 17.6 24;" xml:space="preserve">
<style type="text/css">
	.st0{fill:#FFFFFF;}
</style>
<path class="st0" d="M17.1,13c0.2-0.5,0.6-1.1,0.6-2c0-1.7-1.2-2.7-3.1-2.7h-2.1c-0.5,0-1.1-0.2-1.2-0.7c0-0.6,0.1-1.1,0.5-1.7
	c0.3-0.6,0.7-1.3,0.6-2c-0.1-0.9-0.5-1.6-1.3-2C10.2,1.4,9.2,1.5,8.3,2C7.5,2.4,5.7,4.5,5.2,5.2L5.1,5.3C3.6,7.2,2.3,8.8,0,9v1.9
	c3.2-0.2,4.9-2.3,6.6-4.4l0.1-0.1C7.9,4.7,9,3.7,9.2,3.5c0.3-0.2,0.7-0.2,1,0c0.2,0.1,0.3,0.3,0.3,0.5c0,0.3-0.2,0.6-0.4,1.1
	C9.7,5.7,9.3,6.6,9.4,7.7c0.1,1.4,1.4,2.4,3,2.4h2.1c1.2,0,1.2,0.6,1.2,0.9c0,0.4-0.2,0.7-0.3,1.1c-0.1,0.3-0.2,0.5-0.3,0.9
	C15,13.5,15,13.9,15,14.2c0,0.4,0.1,0.6-0.1,1.1c-0.1,0.3-0.3,0.5-0.6,0.8c-0.2,0.2-0.4,0.4-0.6,0.7c-0.2,0.3-0.3,0.6-0.4,0.9
	c-0.2,0.5-0.2,0.7-0.9,1c-0.6,0.3-1.6,0.4-2,0.3c-1.4,0-2.8-0.4-4-1.1c-1.4-0.8-4-0.8-6.1-0.7c-0.1,0-0.2,0-0.3,0v1.9
	c0.1,0,0.2,0,0.4,0c1.7,0,4.2,0,5.1,0.5C7,20.5,8.7,21,10.4,21l0,0h0.1c0.4,0,1.7,0,2.7-0.5c1.3-0.6,1.6-1.4,1.8-2
	c0.1-0.2,0.1-0.3,0.2-0.5c0.1-0.2,0.3-0.4,0.4-0.5c0.3-0.4,0.7-0.8,1-1.6c0.2-0.8,0.2-1.4,0.2-1.8c0-0.3,0-0.4,0-0.7
	C16.9,13.3,17,13.1,17.1,13"/>
</svg>
