<?xml version="1.0" encoding="utf-8"?>
<!-- Generator: Adobe Illustrator 24.2.0, SVG Export Plug-In . SVG Version: 6.00 Build 0)  -->
<svg version="1.1" id="Layer_1" xmlns="http://www.w3.org/2000/svg" xmlns:xlink="http://www.w3.org/1999/xlink" x="0px" y="0px"
	 viewBox="0 0 17.6 24" style="enable-background:new 0 0 17.6 24;" xml:space="preserve">
<style type="text/css">
	.st0{fill:#FFFFFF;}
</style>
<path class="st0" d="M17.1,10.3c0.2,0.5,0.6,1.1,0.6,2c0,1.7-1.2,2.7-3.1,2.7h-2.1c-0.5,0-1.1,0.2-1.2,0.7c0,0.6,0.1,1.1,0.5,1.7
	c0.3,0.6,0.7,1.3,0.6,2c-0.1,0.9-0.5,1.6-1.3,2c-0.9,0.5-1.9,0.4-2.8-0.1c-0.8-0.5-2.6-2.6-3.1-3.3l-0.1-0.1C3.6,16,2.3,14.4,0,14.2
	v-1.9c3.2,0.2,4.9,2.3,6.6,4.4l0.1,0.1C8,18.4,9,19.5,9.3,19.6c0.3,0.2,0.7,0.2,1,0c0.2-0.1,0.3-0.3,0.3-0.5c0-0.3-0.2-0.6-0.4-1.1
	c-0.4-0.7-0.8-1.6-0.7-2.7c0.1-1.4,1.4-2.4,3-2.4h2.1c1.2,0,1.2-0.6,1.2-0.9c0-0.4-0.2-0.7-0.3-1.1c-0.1-0.3-0.2-0.5-0.3-0.9
	C15,9.8,15,9.4,15,9s0.1-0.6-0.1-1.1c-0.1-0.3-0.3-0.5-0.6-0.8c-0.2-0.2-0.4-0.4-0.6-0.7c-0.2-0.3-0.3-0.6-0.4-0.9
	c-0.2-0.5-0.2-0.7-0.9-1c-0.6-0.3-1.6-0.4-2-0.3c-1.4,0-2.8,0.4-4,1.1C5,6,2.4,6,0.3,6C0.2,6,0.1,6,0,6V4.1c0.1,0,0.2,0,0.4,0
	c1.7,0,4.2,0,5.1-0.5C7,2.7,8.7,2.3,10.4,2.3l0,0h0.1c0.4,0,1.7,0,2.7,0.5c1.3,0.6,1.6,1.4,1.8,2c0.1,0.2,0.1,0.3,0.2,0.5
	c0.1,0.2,0.3,0.4,0.4,0.5c0.3,0.4,0.7,0.8,1,1.6c0.2,0.8,0.2,1.4,0.2,1.8c0,0.3,0,0.4,0,0.7C16.9,10,17,10.1,17.1,10.3"/>
</svg>
